<?xml version="1.0" encoding="utf-8"?>
<!-- Generator: Adobe Illustrator 19.0.0, SVG Export Plug-In . SVG Version: 6.00 Build 0)  -->
<svg version="1.1" id="Layer_1" xmlns="http://www.w3.org/2000/svg" xmlns:xlink="http://www.w3.org/1999/xlink" x="0px" y="0px"
	 viewBox="0 0 256 256" style="enable-background:new 0 0 256 256;" xml:space="preserve">
<style type="text/css">
	.st0{fill:#BBBDBF;}
	.st1{fill:url(#SVGID_1_);}
	.st2{fill:url(#XMLID_15_);}
	.st3{fill:#91C13E;}
	.st4{opacity:0.1;fill:#FFFFFF;}
	.st5{fill:url(#XMLID_16_);}
	.st6{fill:url(#XMLID_17_);}
</style>
<g>
	<path class="st0" d="M128,235.8c-11.1,0-22.1-1.7-32.8-5c-14.4-4.5-27.4-11.7-38.7-21.4l0,0l-1.8-1.6l0,0
		c-32.1-28.7-44.6-73.7-31.7-114.9C30.1,70.1,44,50.6,63.4,36.6c18.7-13.5,41.6-21,64.6-21c11.1,0,22.1,1.7,32.8,5
		c14.8,4.6,28.1,12.1,39.7,22.2c32.8,28.7,45.6,74.1,32.6,115.7c-7.1,22.9-21.1,42.3-40.5,56.3C173.9,228.4,151,235.8,128,235.8
		C128,235.8,128,235.8,128,235.8z M74.5,187c8.5,7.4,18.4,12.9,29.3,16.3c7.9,2.5,16,3.7,24.2,3.7c35.8,0,67-22.9,77.7-57.1
		c9.6-30.7,0.1-64.3-24.1-85.5c-8.5-7.5-18.4-13-29.3-16.4c-7.9-2.5-16.1-3.7-24.3-3.7c-13,0-26,3.2-37.7,9.3
		C71,63.8,56.8,80.8,50.4,101.5C40.8,132.2,50.2,165.8,74.5,187L74.5,187z"/>
	
		<linearGradient id="SVGID_1_" gradientUnits="userSpaceOnUse" x1="854.2548" y1="463.0736" x2="908.8071" y2="530.2148" gradientTransform="matrix(-0.7071 -0.7071 0.7071 -0.7071 406.7305 1036.6609)">
		<stop  offset="0" style="stop-color:#8BC541"/>
		<stop  offset="1" style="stop-color:#BED639"/>
	</linearGradient>
	<path class="st1" d="M56.3,207.7l17.3-19.8c-24.6-21.5-34.2-55.6-24.5-86.8c6.6-21,20.9-38.3,40.5-48.5
		c19.5-10.2,41.9-12.3,62.9-5.7c11.1,3.5,21.1,9.1,29.7,16.6c24.6,21.5,34.2,55.6,24.5,86.8c-13.6,43.4-59.9,67.8-103.4,54.2
		c-11.1-3.4-21.1-9-29.7-16.6L56.3,207.7 M56.3,207.7c11.1,9.7,24.3,17.3,39.2,21.9c57.4,17.9,118.4-14.1,136.4-71.5
		c13.3-42.5-0.8-86.9-32.3-114.4c-11.1-9.7-24.3-17.3-39.2-21.9C103,3.9,42,35.9,24.1,93.3C10.8,135.8,24.9,180.2,56.3,207.7
		L56.3,207.7z"/>
	<linearGradient id="XMLID_15_" gradientUnits="userSpaceOnUse" x1="127.0808" y1="130.5915" x2="86.5155" y2="42.4699">
		<stop  offset="1.226990e-002" style="stop-color:#DAE696"/>
		<stop  offset="0.2699" style="stop-color:#BED639"/>
		<stop  offset="1" style="stop-color:#8BC541"/>
	</linearGradient>
	<path id="XMLID_9_" class="st2" d="M54.9,164.5c-21.1-40.3-5.5-90.3,34.8-111.4c10.3-5.4,21.3-8.5,32.8-9.3
		c32.2-2.1,62.7,14.7,78,43c3.7-11,6.2-22.6,7.4-34.6c-22.4-24.3-54.7-36.8-87.2-34.7c-14.7,1-29.4,5-43.2,12.2
		c-53.2,27.9-73.8,93.7-45.9,147c1.3,2.5,2.7,4.9,4.2,7.3c11.7,2.5,23.9,3.5,36.3,2.8C65.2,180.5,59.4,173,54.9,164.5z"/>
	<path id="XMLID_8_" class="st3" d="M105.6,185.6c-33.4-12.9-50.5-49.8-39.2-83.4c-0.4,0.9-0.8,1.8-1.1,2.7
		c-13.3,34.4,3.8,73,38.2,86.3c34.4,13.3,73-3.8,86.3-38.2c0.4-0.9,0.7-1.8,1-2.8C176.5,182.7,139.1,198.5,105.6,185.6z"/>
	<path id="XMLID_7_" class="st4" d="M105.6,185.6c-33.4-12.9-50.5-49.8-39.2-83.4c-0.4,0.9-0.8,1.8-1.1,2.7
		c-13.3,34.4,3.8,73,38.2,86.3c34.4,13.3,73-3.8,86.3-38.2c0.4-0.9,0.7-1.8,1-2.8C176.5,182.7,139.1,198.5,105.6,185.6z"/>
	<path class="st4" d="M128,235.8c-11.1,0-22.1-1.7-32.8-5c-14.4-4.5-27.4-11.7-38.7-21.4l0,0l-1.8-1.6l0,0
		c-32.1-28.7-44.6-73.7-31.7-114.9C30.1,70.1,44,50.6,63.4,36.6c18.7-13.5,41.6-21,64.6-21c11.1,0,22.1,1.7,32.8,5
		c14.8,4.6,28.1,12.1,39.7,22.2c32.8,28.7,45.6,74.1,32.6,115.7c-7.1,22.9-21.1,42.3-40.5,56.3C173.9,228.4,151,235.8,128,235.8
		C128,235.8,128,235.8,128,235.8z M74.5,187c8.5,7.4,18.4,12.9,29.3,16.3c7.9,2.5,16,3.7,24.2,3.7c35.8,0,67-22.9,77.7-57.1
		c9.6-30.7,0.1-64.3-24.1-85.5c-8.5-7.5-18.4-13-29.3-16.4c-7.9-2.5-16.1-3.7-24.3-3.7c-13,0-26,3.2-37.7,9.3
		C71,63.8,56.8,80.8,50.4,101.5C40.8,132.2,50.2,165.8,74.5,187L74.5,187z"/>
	
		<linearGradient id="XMLID_16_" gradientUnits="userSpaceOnUse" x1="134.9173" y1="70.5679" x2="183.6374" y2="70.5679" gradientTransform="matrix(1 0 0 1 0 13.4082)">
		<stop  offset="0" style="stop-color:#9D533F"/>
		<stop  offset="0.1829" style="stop-color:#934936"/>
		<stop  offset="0.4913" style="stop-color:#7A2F1D"/>
		<stop  offset="0.5395" style="stop-color:#752A19"/>
		<stop  offset="1" style="stop-color:#642C24"/>
	</linearGradient>
	<path id="XMLID_4_" class="st5" d="M141.7,120.4c-3.3,10.1-10.2,29.5-4.8,40.3c6.5,10.7,31.2-0.3,41.1-16.4
		c10-14.6,5.7-32-5.4-36.6c9.8-34,1.8-72.5-26.2-102.7c-2.3-2.5-7.3-3.1-9.5,0.4c-2.2,3.4-1,8.5,1,10.4c25.7,24,36.3,57.8,29.4,90.5
		C155.4,105.4,145.5,111,141.7,120.4z"/>
	<linearGradient id="XMLID_17_" gradientUnits="userSpaceOnUse" x1="78.0563" y1="172.3129" x2="125.7893" y2="172.3129">
		<stop  offset="0" style="stop-color:#9D533F"/>
		<stop  offset="0.1829" style="stop-color:#934936"/>
		<stop  offset="0.4913" style="stop-color:#7A2F1D"/>
		<stop  offset="0.5395" style="stop-color:#752A19"/>
		<stop  offset="1" style="stop-color:#642C24"/>
	</linearGradient>
	<path id="XMLID_3_" class="st6" d="M107.7,144.7C107.7,144.7,107.7,144.8,107.7,144.7c0,0,0-0.1,0.1-0.1c0,0,0,0,0-0.1c0,0,0,0,0,0
		c2.9-13.7,18-31.8,18-32.7c-1.1-1.4-17.5,16.2-22.7,30c-1-0.5-1.9-1.1-2.9-1.6C104.5,125,122,106,122,105.2
		c-1.1-1.4-19.9,17-26.4,32.4c-0.9-0.5-1.9-1.1-2.8-1.6c5.5-16.8,25.4-36.7,25.4-37.5c-1.1-1.5-22.4,17.9-30.1,34.8
		c-1-0.6-1.9-1.1-2.9-1.6c6.8-18.3,29.2-39.2,29.2-39.9c-1.1-1.6-24.8,18.7-33.9,37.2c0,0,0,0,0,0c0,0,0,0,0,0
		c0,0.1-0.1,0.2-0.1,0.2c0,0,0,0,0,0c-4.4,10-2.3,20.4,5,24.2c-9,32.2-1.4,68.8,25.4,97.9c2.2,2.5,7.1,2.5,9.3-1.6
		c2.2-4,1.2-9.3-0.7-11c-23.8-21.9-34.1-53-28.3-83.6C99.1,155.4,104.8,151,107.7,144.7z"/>
	<path id="XMLID_2_" class="st4" d="M141.7,120.4c-3.3,10.1-10.2,29.5-4.8,40.3c6.5,10.7,31.2-0.3,41.1-16.4
		c10-14.6,5.7-32-5.4-36.6c9.8-34,1.8-72.5-26.2-102.7c-2.3-2.5-7.3-3.1-9.5,0.4c-2.2,3.4-1,8.5,1,10.4c25.7,24,36.3,57.8,29.4,90.5
		C155.4,105.4,145.5,111,141.7,120.4z"/>
	<path id="XMLID_1_" class="st4" d="M107.7,144.7C107.7,144.7,107.7,144.8,107.7,144.7c0,0,0-0.1,0.1-0.1c0,0,0,0,0-0.1c0,0,0,0,0,0
		c2.9-13.7,18-31.8,18-32.7c-1.1-1.4-17.5,16.2-22.7,30c-1-0.5-1.9-1.1-2.9-1.6C104.5,125,122,106,122,105.2
		c-1.1-1.4-19.9,17-26.4,32.4c-0.9-0.5-1.9-1.1-2.8-1.6c5.5-16.8,25.4-36.7,25.4-37.5c-1.1-1.5-22.4,17.9-30.1,34.8
		c-1-0.6-1.9-1.1-2.9-1.6c6.8-18.3,29.2-39.2,29.2-39.9c-1.1-1.6-24.8,18.7-33.9,37.2c0,0,0,0,0,0c0,0,0,0,0,0
		c0,0.1-0.1,0.2-0.1,0.2c0,0,0,0,0,0c-4.4,10-2.3,20.4,5,24.2c-9,32.2-1.4,68.8,25.4,97.9c2.2,2.5,7.1,2.5,9.3-1.6
		c2.2-4,1.2-9.3-0.7-11c-23.8-21.9-34.1-53-28.3-83.6C99.1,155.4,104.8,151,107.7,144.7z"/>
</g>
</svg>
